<svg width="3800.0000000000005" height="800" xmlns="http://www.w3.org/2000/svg" class="icon">
 <defs>
  <style type="text/css"/>
 </defs>
 <g>
  <title>background</title>
  <rect fill="none" id="canvas_background" height="802" width="3802" y="-1" x="-1"/>
 </g>
 <g>
  <title>Layer 1</title>
  <g stroke="null" id="svg_17">
   <path stroke="null" id="svg_1" fill="#A8E8FF" d="m441.230705,65.961724l111.594924,0l0,84.629436l-111.594924,0l0,-84.629436zm-284.567058,211.57358l167.392383,0l0,374.787482l-167.392383,0l0,-374.787482zm412.901218,0l167.39239,0l0,374.787482l-167.39239,0l0,-374.787482z"/>
   <path stroke="null" id="svg_2" fill="#A8E8FF" d="m154.989721,676.502625l0,-471.506831a11.159493,12.089919 0 0 1 11.159493,-12.089919l133.913911,0a11.159493,12.089919 0 0 1 11.159493,12.089919l0,187.514636"/>
   <path stroke="null" id="svg_3" fill="#0A4E66" d="m166.149214,676.502625l-22.31898,0l0,-471.506831a22.318986,24.179839 0 0 1 22.31898,-24.179839l133.913911,0a22.318986,24.179839 0 0 1 22.318986,24.179839l0,187.514636l-22.318986,0l0,-187.514636l-133.913911,0l0,471.506831z"/>
   <path stroke="null" id="svg_4" fill="#A8E8FF" d="m735.283329,676.502625l0,-471.506831a11.159493,12.089919 0 0 0 -11.159493,-12.089919l-133.913911,0a11.159493,12.089919 0 0 0 -11.159487,12.089919l0,193.438697"/>
   <path stroke="null" id="svg_5" fill="#0A4E66" d="m746.442822,676.502625l-22.318986,0l0,-471.506831l-133.913911,0l0,193.438697l-22.31898,0l0,-193.438697a22.318986,24.179839 0 0 1 22.31898,-24.179839l133.913911,0a22.318986,24.179839 0 0 1 22.318986,24.179839l0,471.506831z"/>
   <path stroke="null" id="svg_6" fill="#44AECF" d="m261.004902,398.434491l379.422739,0a11.159493,12.089919 0 0 1 11.159493,12.089919l0,247.843331l-401.741725,0l0,-247.843331a11.159493,12.089919 0 0 1 11.159493,-12.089919z"/>
   <path stroke="null" id="svg_7" fill="#0A4E66" d="m651.587134,664.412705l-401.741725,0a5.579743,6.044956 0 0 1 -5.579743,-6.044963l0,-247.843331a16.739236,18.134876 0 0 1 16.739236,-18.134876l379.422739,0a16.739236,18.134876 0 0 1 16.739243,18.134876l0,247.843331a5.579743,6.044956 0 0 1 -5.57975,6.044963zm-396.161976,-12.089919l390.582232,0l0,-241.798375a5.579743,6.044956 0 0 0 -5.57975,-6.044956l-379.422739,0a5.579743,6.044956 0 0 0 -5.579743,6.044956l0,241.798375z"/>
   <path stroke="null" id="svg_8" fill="#A8E8FF" d="m344.701097,507.243759l200.870863,0a11.159493,12.089919 0 0 1 11.159493,12.089919l0,132.989107l-223.189849,0l0,-132.989107a11.159493,12.089919 0 0 1 11.159493,-12.089919z"/>
   <path stroke="null" id="svg_9" fill="#44AECF" d="m199.627693,253.355465l66.956952,0l0,72.539517l-66.956952,0l0,-72.539517zm424.060711,0l66.956952,0l0,72.539517l-66.956952,0l0,-72.539517z"/>
   <path stroke="null" id="svg_10" fill="#0A4E66" d="m433.977035,96.186526l22.318986,0l0,193.438697l-22.318986,0l0,-193.438697z"/>
   <path stroke="null" id="svg_11" fill="#0A4E66" d="m545.571959,168.726036l-89.275938,0a22.318986,24.179839 0 0 1 -22.318986,-24.179839l0,-60.44959a22.318986,24.179839 0 0 1 22.318986,-24.179839l89.275938,0a22.318986,24.179839 0 0 1 22.318986,24.179839l0,60.44959a22.318986,24.179839 0 0 1 -22.318986,24.179839zm-89.275938,-84.629429l0,60.44959l89.275938,0l0,-60.44959l-89.275938,0z"/>
   <path stroke="null" id="svg_12" fill="#A8E8FF" d="m110.351755,664.412705m11.159493,0l647.25056,0q11.159493,0 11.159493,12.089919l0,36.269752q0,12.089919 -11.159493,12.089919l-647.25056,0q-11.159493,0 -11.159493,-12.089919l0,-36.269752q0,-12.089919 11.159493,-12.089919z"/>
   <path stroke="null" id="svg_13" fill="#0A4E66" d="m768.761808,736.952215l-647.25056,0a22.318986,24.179839 0 0 1 -22.318986,-24.179839l0,-36.269752a22.318986,24.179839 0 0 1 22.318986,-24.179839l647.25056,0a22.318986,24.179839 0 0 1 22.31898,24.179839l0,36.269752a22.318986,24.179839 0 0 1 -22.31898,24.179839zm-647.25056,-60.44959l0,36.269752l647.25056,0l0,-36.269752l-647.25056,0z"/>
   <path stroke="null" id="svg_14" fill="#A8E8FF" d="m305.642874,277.535304l278.987308,0l0,120.899188l-278.987308,0l0,-120.899188z"/>
   <path stroke="null" id="svg_15" fill="#0A4E66" d="m584.630182,404.479448l-278.987314,0a5.579743,6.044956 0 0 1 -5.579743,-6.044956l0,-120.899188a5.579743,6.044956 0 0 1 5.579743,-6.044956l278.987314,0a5.579743,6.044956 0 0 1 5.579743,6.044956l0,120.899188a5.579743,6.044956 0 0 1 -5.579743,6.044963l0,-0.000007zm-273.407564,-12.089913l267.827821,0l0,-108.809268l-267.827821,0l0,108.809268z"/>
   <path stroke="null" id="svg_16" fill="#0A4E66" d="m367.020076,325.894981m11.159493,0l133.913911,0q11.159493,0 11.159493,12.089919l0,0q0,12.089913 -11.159493,12.089913l-133.913911,0q-11.159493,0 -11.159493,-12.089913l0,0q0,-12.089919 11.159493,-12.089919z"/>
  </g>
  <path id="svg_18" d="m266.339649,399.65172" opacity="0.5" fill-opacity="null" stroke-opacity="null" stroke-width="null" stroke="null" fill="#0A4E66"/>
  <text stroke="null" transform="matrix(1.2787227238285084,0,0,1.3562399658262336,-259.9336253822353,-98.898127069991) " font-weight="bold" xml:space="preserve" text-anchor="start" font-family="Helvetica, Arial, sans-serif" font-size="250" id="svg_19" y="469.89557" x="866.842727" fill-opacity="null" stroke-opacity="null" stroke-width="0" fill="#000000">政府数据可视化平台</text>
 </g>
</svg>