<svg width="2000" height="1024" xmlns="http://www.w3.org/2000/svg" class="icon">
 <defs>
  <style type="text/css"/>
 </defs>
 <g>
  <title>background</title>
  <rect fill="none" id="canvas_background" height="1026" width="2002" y="-1" x="-1"/>
 </g>
 <g>
  <title>Layer 1</title>
  <g stroke="null" id="svg_17">
   <path stroke="null" id="svg_1" fill="#A8E8FF" d="m407.896739,132.629668l111.594928,0l0,84.629439l-111.594928,0l0,-84.629439zm-284.567068,211.573587l167.392389,0l0,374.787495l-167.392389,0l0,-374.787495zm412.901233,0l167.392396,0l0,374.787495l-167.392396,0l0,-374.787495z"/>
   <path stroke="null" id="svg_2" fill="#A8E8FF" d="m121.655744,743.170591l0,-471.506848a11.159493,12.08992 0 0 1 11.159493,-12.08992l133.913915,0a11.159493,12.08992 0 0 1 11.159493,12.08992l0,187.514643"/>
   <path stroke="null" id="svg_3" fill="#0A4E66" d="m132.815238,743.170591l-22.318981,0l0,-471.506848a22.318987,24.17984 0 0 1 22.318981,-24.17984l133.913915,0a22.318987,24.17984 0 0 1 22.318987,24.17984l0,187.514643l-22.318987,0l0,-187.514643l-133.913915,0l0,471.506848z"/>
   <path stroke="null" id="svg_4" fill="#A8E8FF" d="m701.949373,743.170591l0,-471.506848a11.159493,12.08992 0 0 0 -11.159493,-12.08992l-133.913915,0a11.159493,12.08992 0 0 0 -11.159487,12.08992l0,193.438704"/>
   <path stroke="null" id="svg_5" fill="#0A4E66" d="m713.108866,743.170591l-22.318987,0l0,-471.506848l-133.913915,0l0,193.438704l-22.318981,0l0,-193.438704a22.318987,24.17984 0 0 1 22.318981,-24.17984l133.913915,0a22.318987,24.17984 0 0 1 22.318987,24.17984l0,471.506848z"/>
   <path stroke="null" id="svg_6" fill="#44AECF" d="m227.670929,465.102448l379.422753,0a11.159493,12.08992 0 0 1 11.159493,12.08992l0,247.84334l-401.74174,0l0,-247.84334a11.159493,12.08992 0 0 1 11.159493,-12.08992z"/>
   <path stroke="null" id="svg_7" fill="#0A4E66" d="m618.253175,731.080671l-401.74174,0a5.579744,6.044957 0 0 1 -5.579744,-6.044963l0,-247.84334a16.739237,18.134876 0 0 1 16.739237,-18.134876l379.422753,0a16.739237,18.134876 0 0 1 16.739243,18.134876l0,247.84334a5.579744,6.044957 0 0 1 -5.57975,6.044963zm-396.16199,-12.08992l390.582246,0l0,-241.798384a5.579744,6.044957 0 0 0 -5.57975,-6.044957l-379.422753,0a5.579744,6.044957 0 0 0 -5.579744,6.044957l0,241.798384z"/>
   <path stroke="null" id="svg_8" fill="#A8E8FF" d="m311.367127,573.91172l200.87087,0a11.159493,12.08992 0 0 1 11.159493,12.08992l0,132.989112l-223.189857,0l0,-132.989112a11.159493,12.08992 0 0 1 11.159493,-12.08992z"/>
   <path stroke="null" id="svg_9" fill="#44AECF" d="m166.293718,320.023416l66.956955,0l0,72.539519l-66.956955,0l0,-72.539519zm424.060726,0l66.956955,0l0,72.539519l-66.956955,0l0,-72.539519z"/>
   <path stroke="null" id="svg_10" fill="#0A4E66" d="m400.643068,162.854471l22.318987,0l0,193.438704l-22.318987,0l0,-193.438704z"/>
   <path stroke="null" id="svg_11" fill="#0A4E66" d="m512.237997,235.393984l-89.275941,0a22.318987,24.17984 0 0 1 -22.318987,-24.17984l0,-60.449593a22.318987,24.17984 0 0 1 22.318987,-24.17984l89.275941,0a22.318987,24.17984 0 0 1 22.318987,24.17984l0,60.449593a22.318987,24.17984 0 0 1 -22.318987,24.17984zm-89.275941,-84.629432l0,60.449593l89.275941,0l0,-60.449593l-89.275941,0z"/>
   <path stroke="null" id="svg_12" fill="#A8E8FF" d="m77.017777,731.080671m11.159493,0l647.250583,0q11.159493,0 11.159493,12.08992l0,36.269753q0,12.08992 -11.159493,12.08992l-647.250583,0q-11.159493,0 -11.159493,-12.08992l0,-36.269753q0,-12.08992 11.159493,-12.08992z"/>
   <path stroke="null" id="svg_13" fill="#0A4E66" d="m735.427853,803.620183l-647.250583,0a22.318987,24.17984 0 0 1 -22.318987,-24.17984l0,-36.269753a22.318987,24.17984 0 0 1 22.318987,-24.17984l647.250583,0a22.318987,24.17984 0 0 1 22.318981,24.17984l0,36.269753a22.318987,24.17984 0 0 1 -22.318981,24.17984zm-647.250583,-60.449593l0,36.269753l647.250583,0l0,-36.269753l-647.250583,0z"/>
   <path stroke="null" id="svg_14" fill="#A8E8FF" d="m272.308903,344.203256l278.987318,0l0,120.899192l-278.987318,0l0,-120.899192z"/>
   <path stroke="null" id="svg_15" fill="#0A4E66" d="m551.296221,471.147404l-278.987324,0a5.579744,6.044957 0 0 1 -5.579744,-6.044957l0,-120.899192a5.579744,6.044957 0 0 1 5.579744,-6.044957l278.987324,0a5.579744,6.044957 0 0 1 5.579744,6.044957l0,120.899192a5.579744,6.044957 0 0 1 -5.579744,6.044963l0,-0.000007zm-273.407574,-12.089913l267.827831,0l0,-108.809272l-267.827831,0l0,108.809272z"/>
   <path stroke="null" id="svg_16" fill="#0A4E66" d="m333.686108,392.562935m11.159493,0l133.913915,0q11.159493,0 11.159493,12.08992l0,0q0,12.089913 -11.159493,12.089913l-133.913915,0q-11.159493,0 -11.159493,-12.089913l0,0q0,-12.08992 11.159493,-12.08992z"/>
  </g>
  <path id="svg_18" d="m266.339649,399.65172" opacity="0.5" fill-opacity="null" stroke-opacity="null" stroke-width="null" stroke="null" fill="#0A4E66"/>
  <text font-weight="bold" xml:space="preserve" text-anchor="start" font-family="Helvetica, Arial, sans-serif" font-size="220" id="svg_19" y="443.718174" x="893.054143" fill-opacity="null" stroke-opacity="null" stroke-width="0" stroke="null" fill="#000000">政府数据</text>
  <text font-weight="bold" xml:space="preserve" text-anchor="start" font-family="Helvetica, Arial, sans-serif" font-size="220" id="svg_20" y="721.675828" x="789.66745" fill-opacity="null" stroke-opacity="null" stroke-width="0" stroke="null" fill="#000000">可视化平台</text>
 </g>
</svg>